<mxfile host="app.diagrams.net" agent="Mozilla/5.0 (Windows NT 10.0; Win64; x64) AppleWebKit/537.36 (KHTML, like Gecko) Chrome/132.0.0.0 Safari/537.36" version="26.0.11">
  <diagram name="Página-1" id="DddyxpyGG7sV6sFL8HsJ">
    <mxGraphModel dx="1318" dy="551" grid="1" gridSize="10" guides="1" tooltips="1" connect="1" arrows="1" fold="1" page="1" pageScale="1" pageWidth="827" pageHeight="1169" math="0" shadow="0">
      <root>
        <mxCell id="0" />
        <mxCell id="1" parent="0" />
        <mxCell id="pEHyhJBzgqAkuAIjtpJM-1" value="Payment Gateway" style="shape=umlLifeline;perimeter=lifelinePerimeter;whiteSpace=wrap;html=1;container=1;collapsible=0;recursiveResize=0;outlineConnect=0;rounded=1;shadow=0;comic=0;labelBackgroundColor=none;strokeWidth=1;fontFamily=Verdana;fontSize=12;align=center;" parent="1" vertex="1">
          <mxGeometry x="453" y="150" width="120" height="410" as="geometry" />
        </mxCell>
        <mxCell id="AEKDksm2fbza5dRl8VnH-157" value="&lt;font style=&quot;font-size: 9px;&quot;&gt;Error: número, cvv, fecha caducida&lt;/font&gt;&lt;span style=&quot;font-size: 9px; background-color: transparent; color: light-dark(rgb(0, 0, 0), rgb(255, 255, 255));&quot;&gt;d&lt;/span&gt;" style="text;html=1;align=center;verticalAlign=middle;whiteSpace=wrap;rounded=0;" parent="pEHyhJBzgqAkuAIjtpJM-1" vertex="1">
          <mxGeometry x="-23" y="250" width="153" height="30" as="geometry" />
        </mxCell>
        <mxCell id="AEKDksm2fbza5dRl8VnH-155" style="edgeStyle=orthogonalEdgeStyle;rounded=0;orthogonalLoop=1;jettySize=auto;html=1;curved=0;dashed=1;" parent="pEHyhJBzgqAkuAIjtpJM-1" edge="1">
          <mxGeometry relative="1" as="geometry">
            <Array as="points">
              <mxPoint x="29.25" y="279" />
              <mxPoint x="29.25" y="280" />
            </Array>
            <mxPoint x="217.75" y="279.0344827586208" as="sourcePoint" />
            <mxPoint x="-110.75054054054044" y="279.0000000000001" as="targetPoint" />
          </mxGeometry>
        </mxCell>
        <mxCell id="nVub4CB0qsHNIo-ykxNa-20" value="&lt;font size=&quot;1&quot;&gt;Se acepta la transacción&lt;/font&gt;" style="text;html=1;align=center;verticalAlign=middle;whiteSpace=wrap;rounded=0;" vertex="1" parent="pEHyhJBzgqAkuAIjtpJM-1">
          <mxGeometry x="-93" y="290" width="153" height="30" as="geometry" />
        </mxCell>
        <mxCell id="pEHyhJBzgqAkuAIjtpJM-2" value="Tarjeta" style="shape=umlActor;verticalLabelPosition=bottom;verticalAlign=top;html=1;outlineConnect=0;" parent="1" vertex="1">
          <mxGeometry x="60" y="370" width="60" height="130" as="geometry" />
        </mxCell>
        <mxCell id="pEHyhJBzgqAkuAIjtpJM-3" value="" style="endArrow=classic;html=1;rounded=0;" parent="1" target="nVub4CB0qsHNIo-ykxNa-1" edge="1" source="nVub4CB0qsHNIo-ykxNa-11">
          <mxGeometry width="50" height="50" relative="1" as="geometry">
            <mxPoint x="160" y="420" as="sourcePoint" />
            <mxPoint x="320" y="430" as="targetPoint" />
          </mxGeometry>
        </mxCell>
        <mxCell id="pEHyhJBzgqAkuAIjtpJM-5" value="&lt;span style=&quot;font-size: 9px;&quot;&gt;Datos TC(número, cvv, fecha caducidad, monto)&lt;/span&gt;" style="text;strokeColor=none;align=center;fillColor=none;html=1;verticalAlign=middle;whiteSpace=wrap;rounded=0;" parent="1" vertex="1">
          <mxGeometry x="160" y="340" width="190" height="30" as="geometry" />
        </mxCell>
        <mxCell id="pEHyhJBzgqAkuAIjtpJM-19" value="&lt;font style=&quot;font-size: 24px;&quot;&gt;Diagrama Transacción Recurrente - Sistema Payment Gateway&lt;/font&gt;" style="text;strokeColor=none;align=center;fillColor=none;html=1;verticalAlign=middle;whiteSpace=wrap;rounded=0;" parent="1" vertex="1">
          <mxGeometry x="130" y="40" width="720" height="90" as="geometry" />
        </mxCell>
        <mxCell id="AEKDksm2fbza5dRl8VnH-121" value="Procesador" style="shape=umlLifeline;perimeter=lifelinePerimeter;whiteSpace=wrap;html=1;container=1;collapsible=0;recursiveResize=0;outlineConnect=0;rounded=1;shadow=0;comic=0;labelBackgroundColor=none;strokeWidth=1;fontFamily=Verdana;fontSize=12;align=center;" parent="1" vertex="1">
          <mxGeometry x="619" y="150" width="110" height="410" as="geometry" />
        </mxCell>
        <mxCell id="nVub4CB0qsHNIo-ykxNa-6" value="" style="edgeStyle=orthogonalEdgeStyle;rounded=0;orthogonalLoop=1;jettySize=auto;html=1;" edge="1" parent="1" source="AEKDksm2fbza5dRl8VnH-121">
          <mxGeometry relative="1" as="geometry">
            <mxPoint x="670" y="390" as="sourcePoint" />
            <mxPoint x="808.5" y="391" as="targetPoint" />
            <Array as="points">
              <mxPoint x="800" y="392" />
              <mxPoint x="800" y="391" />
            </Array>
          </mxGeometry>
        </mxCell>
        <mxCell id="nVub4CB0qsHNIo-ykxNa-1" value="POS" style="shape=umlLifeline;perimeter=lifelinePerimeter;whiteSpace=wrap;html=1;container=1;collapsible=0;recursiveResize=0;outlineConnect=0;rounded=1;shadow=0;comic=0;labelBackgroundColor=none;strokeWidth=1;fontFamily=Verdana;fontSize=12;align=center;" vertex="1" parent="1">
          <mxGeometry x="290" y="150" width="100" height="410" as="geometry" />
        </mxCell>
        <mxCell id="nVub4CB0qsHNIo-ykxNa-10" value="" style="endArrow=classic;html=1;rounded=0;" edge="1" parent="nVub4CB0qsHNIo-ykxNa-1">
          <mxGeometry width="50" height="50" relative="1" as="geometry">
            <mxPoint x="50" y="329.99923076923073" as="sourcePoint" />
            <mxPoint x="-170" y="330" as="targetPoint" />
          </mxGeometry>
        </mxCell>
        <mxCell id="nVub4CB0qsHNIo-ykxNa-18" value="" style="endArrow=classic;html=1;rounded=0;entryX=1.005;entryY=0.644;entryDx=0;entryDy=0;entryPerimeter=0;" edge="1" parent="nVub4CB0qsHNIo-ykxNa-1" target="nVub4CB0qsHNIo-ykxNa-11">
          <mxGeometry width="50" height="50" relative="1" as="geometry">
            <mxPoint x="221" y="310" as="sourcePoint" />
            <mxPoint x="60" y="310" as="targetPoint" />
            <Array as="points">
              <mxPoint x="137" y="310" />
            </Array>
          </mxGeometry>
        </mxCell>
        <mxCell id="nVub4CB0qsHNIo-ykxNa-3" style="edgeStyle=orthogonalEdgeStyle;rounded=0;orthogonalLoop=1;jettySize=auto;html=1;curved=0;" edge="1" parent="1" target="pEHyhJBzgqAkuAIjtpJM-1">
          <mxGeometry relative="1" as="geometry">
            <Array as="points">
              <mxPoint x="450" y="384" />
              <mxPoint x="450" y="384" />
            </Array>
            <mxPoint x="340" y="384.41" as="sourcePoint" />
            <mxPoint x="509" y="384.41" as="targetPoint" />
          </mxGeometry>
        </mxCell>
        <mxCell id="nVub4CB0qsHNIo-ykxNa-4" value="&lt;font style=&quot;font-size: 9px;&quot;&gt;Envia: número, cvv, fecha cad, monto, fechaTX, código POS, código comercio&lt;/font&gt;" style="text;html=1;align=center;verticalAlign=middle;whiteSpace=wrap;rounded=0;" vertex="1" parent="1">
          <mxGeometry x="360" y="330" width="120" height="30" as="geometry" />
        </mxCell>
        <mxCell id="nVub4CB0qsHNIo-ykxNa-5" value="Base de Datos (Payment Gateway)" style="shape=cylinder3;whiteSpace=wrap;html=1;boundedLbl=1;backgroundOutline=1;size=15;" vertex="1" parent="1">
          <mxGeometry x="808.5" y="330" width="110" height="160" as="geometry" />
        </mxCell>
        <mxCell id="nVub4CB0qsHNIo-ykxNa-8" value="&lt;font size=&quot;1&quot;&gt;Guarda: CUTX, cantidad pagos, monto total, monto por pago, fecha inicio/fin, estado&lt;/font&gt;" style="text;html=1;align=center;verticalAlign=middle;whiteSpace=wrap;rounded=0;" vertex="1" parent="1">
          <mxGeometry x="677.5" y="310" width="120" height="30" as="geometry" />
        </mxCell>
        <mxCell id="AEKDksm2fbza5dRl8VnH-124" value="&lt;font style=&quot;font-size: 9px;&quot;&gt;Envia: número, cvv, fecha cad, monto, fechaTX, código unico tx, código comercio, código gtw, referencia, numCuotas, FechaCobro, tieneIntereses&lt;/font&gt;" style="text;html=1;align=center;verticalAlign=middle;whiteSpace=wrap;rounded=0;" parent="1" vertex="1">
          <mxGeometry x="530" y="300" width="120" height="20" as="geometry" />
        </mxCell>
        <mxCell id="AEKDksm2fbza5dRl8VnH-125" style="edgeStyle=orthogonalEdgeStyle;rounded=0;orthogonalLoop=1;jettySize=auto;html=1;curved=0;" parent="1" edge="1" target="AEKDksm2fbza5dRl8VnH-121" source="pEHyhJBzgqAkuAIjtpJM-1">
          <mxGeometry relative="1" as="geometry">
            <Array as="points">
              <mxPoint x="590" y="360" />
              <mxPoint x="590" y="360" />
            </Array>
            <mxPoint x="503" y="380" as="sourcePoint" />
            <mxPoint x="672" y="380" as="targetPoint" />
          </mxGeometry>
        </mxCell>
        <mxCell id="nVub4CB0qsHNIo-ykxNa-12" value="" style="endArrow=classic;html=1;rounded=0;" edge="1" parent="1">
          <mxGeometry width="50" height="50" relative="1" as="geometry">
            <mxPoint x="150" y="400" as="sourcePoint" />
            <mxPoint x="340" y="400" as="targetPoint" />
          </mxGeometry>
        </mxCell>
        <mxCell id="nVub4CB0qsHNIo-ykxNa-11" value="&lt;font size=&quot;1&quot;&gt;Envía mensaje de confirmación/rechazo&lt;/font&gt;" style="text;strokeColor=none;align=center;fillColor=none;html=1;verticalAlign=middle;whiteSpace=wrap;rounded=0;" vertex="1" parent="1">
          <mxGeometry x="150" y="440" width="190" height="30" as="geometry" />
        </mxCell>
        <mxCell id="nVub4CB0qsHNIo-ykxNa-13" value="" style="endArrow=classic;html=1;rounded=0;" edge="1" parent="1" source="pEHyhJBzgqAkuAIjtpJM-1" target="pEHyhJBzgqAkuAIjtpJM-1">
          <mxGeometry width="50" height="50" relative="1" as="geometry">
            <mxPoint x="520" y="470" as="sourcePoint" />
            <mxPoint x="600" y="490" as="targetPoint" />
            <Array as="points">
              <mxPoint x="540" y="500" />
              <mxPoint x="560" y="500" />
              <mxPoint x="560" y="520" />
              <mxPoint x="540" y="520" />
            </Array>
          </mxGeometry>
        </mxCell>
        <mxCell id="nVub4CB0qsHNIo-ykxNa-14" value="&lt;font style=&quot;font-size: 9px;&quot;&gt;Validación: frecuencia, monto total/por pago&lt;/font&gt;" style="text;html=1;align=center;verticalAlign=middle;whiteSpace=wrap;rounded=0;" vertex="1" parent="1">
          <mxGeometry x="560" y="500" width="76" height="30" as="geometry" />
        </mxCell>
        <mxCell id="nVub4CB0qsHNIo-ykxNa-15" value="" style="endArrow=classic;html=1;rounded=0;" edge="1" parent="1" source="AEKDksm2fbza5dRl8VnH-121" target="pEHyhJBzgqAkuAIjtpJM-1">
          <mxGeometry width="50" height="50" relative="1" as="geometry">
            <mxPoint x="673.5" y="450" as="sourcePoint" />
            <mxPoint x="530" y="450" as="targetPoint" />
            <Array as="points">
              <mxPoint x="590" y="460" />
            </Array>
          </mxGeometry>
        </mxCell>
        <mxCell id="nVub4CB0qsHNIo-ykxNa-19" value="&lt;font size=&quot;1&quot;&gt;Se acepta la transacción&lt;/font&gt;" style="text;html=1;align=center;verticalAlign=middle;whiteSpace=wrap;rounded=0;" vertex="1" parent="1">
          <mxGeometry x="521.5" y="440" width="153" height="30" as="geometry" />
        </mxCell>
      </root>
    </mxGraphModel>
  </diagram>
</mxfile>
